<mxfile host="65bd71144e">
    <diagram id="Uz2oyUnhidnE9bJEwkCq" name="Page-1">
        <mxGraphModel dx="1212" dy="820" grid="1" gridSize="10" guides="1" tooltips="1" connect="1" arrows="1" fold="1" page="0" pageScale="1" pageWidth="850" pageHeight="1100" math="0" shadow="0">
            <root>
                <mxCell id="0"/>
                <mxCell id="1" parent="0"/>
            </root>
        </mxGraphModel>
    </diagram>
    <diagram name="Page-2" id="L2tvHYcNRrxNavDDaCdh">
        <mxGraphModel grid="1" page="0" gridSize="10" guides="1" tooltips="1" connect="1" arrows="1" fold="1" pageScale="1" pageWidth="850" pageHeight="1100" math="0" shadow="0">
            <root>
                <mxCell id="0"/>
                <mxCell id="1" parent="0"/>
                <mxCell id="D1kGKPAv6p63z2uvyRfU-1" value="evennements" style="swimlane;whiteSpace=wrap;html=1;" parent="1" vertex="1">
                    <mxGeometry x="300" y="200" width="140" height="220" as="geometry"/>
                </mxCell>
                <mxCell id="D1kGKPAv6p63z2uvyRfU-2" value="id_evennements&amp;nbsp;" style="text;html=1;strokeColor=none;fillColor=none;align=center;verticalAlign=middle;whiteSpace=wrap;rounded=0;" parent="D1kGKPAv6p63z2uvyRfU-1" vertex="1">
                    <mxGeometry x="20" y="30" width="90" height="30" as="geometry"/>
                </mxCell>
                <mxCell id="D1kGKPAv6p63z2uvyRfU-3" value="nom" style="text;html=1;strokeColor=none;fillColor=none;align=center;verticalAlign=middle;whiteSpace=wrap;rounded=0;" parent="D1kGKPAv6p63z2uvyRfU-1" vertex="1">
                    <mxGeometry x="10" y="60" width="60" height="30" as="geometry"/>
                </mxCell>
                <mxCell id="D1kGKPAv6p63z2uvyRfU-4" value="temps" style="text;html=1;strokeColor=none;fillColor=none;align=center;verticalAlign=middle;whiteSpace=wrap;rounded=0;" parent="D1kGKPAv6p63z2uvyRfU-1" vertex="1">
                    <mxGeometry x="20" y="90" width="60" height="30" as="geometry"/>
                </mxCell>
                <mxCell id="D1kGKPAv6p63z2uvyRfU-5" value="adresse" style="text;html=1;strokeColor=none;fillColor=none;align=center;verticalAlign=middle;whiteSpace=wrap;rounded=0;" parent="D1kGKPAv6p63z2uvyRfU-1" vertex="1">
                    <mxGeometry x="10" y="120" width="60" height="30" as="geometry"/>
                </mxCell>
                <mxCell id="D1kGKPAv6p63z2uvyRfU-50" value="#id_lieux" style="text;html=1;strokeColor=none;fillColor=none;align=center;verticalAlign=middle;whiteSpace=wrap;rounded=0;" parent="D1kGKPAv6p63z2uvyRfU-1" vertex="1">
                    <mxGeometry x="10" y="160" width="60" height="30" as="geometry"/>
                </mxCell>
                <mxCell id="D1kGKPAv6p63z2uvyRfU-58" value="" style="endArrow=none;html=1;exitX=0;exitY=0;exitDx=0;exitDy=0;entryX=1;entryY=1;entryDx=0;entryDy=0;" parent="D1kGKPAv6p63z2uvyRfU-1" source="D1kGKPAv6p63z2uvyRfU-3" target="D1kGKPAv6p63z2uvyRfU-2" edge="1">
                    <mxGeometry width="50" height="50" relative="1" as="geometry">
                        <mxPoint x="-70" y="70" as="sourcePoint"/>
                        <mxPoint x="-20" y="20" as="targetPoint"/>
                        <Array as="points">
                            <mxPoint x="90" y="60"/>
                            <mxPoint x="130" y="60"/>
                        </Array>
                    </mxGeometry>
                </mxCell>
                <mxCell id="D1kGKPAv6p63z2uvyRfU-6" value="organisateurs" style="swimlane;whiteSpace=wrap;html=1;" parent="1" vertex="1">
                    <mxGeometry x="700" y="10" width="155" height="220" as="geometry"/>
                </mxCell>
                <mxCell id="D1kGKPAv6p63z2uvyRfU-7" value="id_organisateurs&amp;nbsp;" style="text;html=1;strokeColor=none;fillColor=none;align=center;verticalAlign=middle;whiteSpace=wrap;rounded=0;" parent="D1kGKPAv6p63z2uvyRfU-6" vertex="1">
                    <mxGeometry x="20" y="30" width="90" height="30" as="geometry"/>
                </mxCell>
                <mxCell id="D1kGKPAv6p63z2uvyRfU-8" value="nom" style="text;html=1;strokeColor=none;fillColor=none;align=center;verticalAlign=middle;whiteSpace=wrap;rounded=0;" parent="D1kGKPAv6p63z2uvyRfU-6" vertex="1">
                    <mxGeometry x="10" y="60" width="60" height="30" as="geometry"/>
                </mxCell>
                <mxCell id="D1kGKPAv6p63z2uvyRfU-9" value="prenom" style="text;html=1;strokeColor=none;fillColor=none;align=center;verticalAlign=middle;whiteSpace=wrap;rounded=0;" parent="D1kGKPAv6p63z2uvyRfU-6" vertex="1">
                    <mxGeometry x="20" y="90" width="60" height="30" as="geometry"/>
                </mxCell>
                <mxCell id="D1kGKPAv6p63z2uvyRfU-10" value="age" style="text;html=1;strokeColor=none;fillColor=none;align=center;verticalAlign=middle;whiteSpace=wrap;rounded=0;" parent="D1kGKPAv6p63z2uvyRfU-6" vertex="1">
                    <mxGeometry x="10" y="120" width="60" height="30" as="geometry"/>
                </mxCell>
                <mxCell id="D1kGKPAv6p63z2uvyRfU-11" value="adress" style="text;html=1;strokeColor=none;fillColor=none;align=center;verticalAlign=middle;whiteSpace=wrap;rounded=0;" parent="D1kGKPAv6p63z2uvyRfU-6" vertex="1">
                    <mxGeometry x="20" y="150" width="60" height="30" as="geometry"/>
                </mxCell>
                <mxCell id="D1kGKPAv6p63z2uvyRfU-12" value="" style="endArrow=none;html=1;entryX=0;entryY=0.5;entryDx=0;entryDy=0;" parent="1" target="D1kGKPAv6p63z2uvyRfU-6" edge="1">
                    <mxGeometry width="50" height="50" relative="1" as="geometry">
                        <mxPoint x="440.00000000000045" y="330" as="sourcePoint"/>
                        <mxPoint x="550" y="260" as="targetPoint"/>
                    </mxGeometry>
                </mxCell>
                <mxCell id="D1kGKPAv6p63z2uvyRfU-13" value="" style="ellipse;whiteSpace=wrap;html=1;" parent="1" vertex="1">
                    <mxGeometry x="490" y="170" width="170" height="110" as="geometry"/>
                </mxCell>
                <mxCell id="D1kGKPAv6p63z2uvyRfU-15" value="1,n" style="text;html=1;strokeColor=none;fillColor=none;align=center;verticalAlign=middle;whiteSpace=wrap;rounded=0;" parent="1" vertex="1">
                    <mxGeometry x="430" y="330" width="60" height="30" as="geometry"/>
                </mxCell>
                <mxCell id="D1kGKPAv6p63z2uvyRfU-16" value="1,n" style="text;html=1;strokeColor=none;fillColor=none;align=center;verticalAlign=middle;whiteSpace=wrap;rounded=0;" parent="1" vertex="1">
                    <mxGeometry x="650" y="100" width="60" height="30" as="geometry"/>
                </mxCell>
                <mxCell id="D1kGKPAv6p63z2uvyRfU-17" value="lieux" style="swimlane;whiteSpace=wrap;html=1;" parent="1" vertex="1">
                    <mxGeometry x="290" y="-180" width="140" height="140" as="geometry"/>
                </mxCell>
                <mxCell id="D1kGKPAv6p63z2uvyRfU-18" value="id_lieux&amp;nbsp;" style="text;html=1;strokeColor=none;fillColor=none;align=center;verticalAlign=middle;whiteSpace=wrap;rounded=0;" parent="D1kGKPAv6p63z2uvyRfU-17" vertex="1">
                    <mxGeometry x="5" y="30" width="90" height="30" as="geometry"/>
                </mxCell>
                <mxCell id="D1kGKPAv6p63z2uvyRfU-19" value="adresse" style="text;html=1;strokeColor=none;fillColor=none;align=center;verticalAlign=middle;whiteSpace=wrap;rounded=0;" parent="D1kGKPAv6p63z2uvyRfU-17" vertex="1">
                    <mxGeometry x="20" y="60" width="60" height="30" as="geometry"/>
                </mxCell>
                <mxCell id="D1kGKPAv6p63z2uvyRfU-20" value="temps" style="text;html=1;strokeColor=none;fillColor=none;align=center;verticalAlign=middle;whiteSpace=wrap;rounded=0;" parent="D1kGKPAv6p63z2uvyRfU-17" vertex="1">
                    <mxGeometry x="20" y="90" width="50" height="30" as="geometry"/>
                </mxCell>
                <mxCell id="D1kGKPAv6p63z2uvyRfU-59" value="" style="endArrow=none;html=1;" parent="D1kGKPAv6p63z2uvyRfU-17" edge="1">
                    <mxGeometry width="50" height="50" relative="1" as="geometry">
                        <mxPoint x="20" y="50" as="sourcePoint"/>
                        <mxPoint x="70" y="50" as="targetPoint"/>
                    </mxGeometry>
                </mxCell>
                <mxCell id="D1kGKPAv6p63z2uvyRfU-21" value="" style="endArrow=none;html=1;exitX=0.421;exitY=-0.001;exitDx=0;exitDy=0;entryX=0.5;entryY=1;entryDx=0;entryDy=0;exitPerimeter=0;" parent="1" source="D1kGKPAv6p63z2uvyRfU-1" target="D1kGKPAv6p63z2uvyRfU-17" edge="1">
                    <mxGeometry width="50" height="50" relative="1" as="geometry">
                        <mxPoint x="500" y="100" as="sourcePoint"/>
                        <mxPoint x="550" y="50" as="targetPoint"/>
                    </mxGeometry>
                </mxCell>
                <mxCell id="D1kGKPAv6p63z2uvyRfU-22" value="lieux" style="ellipse;whiteSpace=wrap;html=1;" parent="1" vertex="1">
                    <mxGeometry x="300" y="50" width="120" height="70" as="geometry"/>
                </mxCell>
                <mxCell id="D1kGKPAv6p63z2uvyRfU-23" value="1,n" style="text;html=1;strokeColor=none;fillColor=none;align=center;verticalAlign=middle;whiteSpace=wrap;rounded=0;" parent="1" vertex="1">
                    <mxGeometry x="310" y="-40" width="60" height="30" as="geometry"/>
                </mxCell>
                <mxCell id="D1kGKPAv6p63z2uvyRfU-24" value="1,1" style="text;html=1;strokeColor=none;fillColor=none;align=center;verticalAlign=middle;whiteSpace=wrap;rounded=0;" parent="1" vertex="1">
                    <mxGeometry x="310" y="170" width="60" height="30" as="geometry"/>
                </mxCell>
                <mxCell id="D1kGKPAv6p63z2uvyRfU-25" value="participants&amp;nbsp;" style="swimlane;whiteSpace=wrap;html=1;" parent="1" vertex="1">
                    <mxGeometry x="-150" y="-60" width="140" height="170" as="geometry"/>
                </mxCell>
                <mxCell id="D1kGKPAv6p63z2uvyRfU-26" value="id_participants&amp;nbsp;" style="text;html=1;strokeColor=none;fillColor=none;align=center;verticalAlign=middle;whiteSpace=wrap;rounded=0;" parent="D1kGKPAv6p63z2uvyRfU-25" vertex="1">
                    <mxGeometry x="20" y="30" width="90" height="30" as="geometry"/>
                </mxCell>
                <mxCell id="D1kGKPAv6p63z2uvyRfU-27" value="nom" style="text;html=1;strokeColor=none;fillColor=none;align=center;verticalAlign=middle;whiteSpace=wrap;rounded=0;" parent="D1kGKPAv6p63z2uvyRfU-25" vertex="1">
                    <mxGeometry x="10" y="60" width="60" height="30" as="geometry"/>
                </mxCell>
                <mxCell id="D1kGKPAv6p63z2uvyRfU-28" value="prenom" style="text;html=1;strokeColor=none;fillColor=none;align=center;verticalAlign=middle;whiteSpace=wrap;rounded=0;" parent="D1kGKPAv6p63z2uvyRfU-25" vertex="1">
                    <mxGeometry x="20" y="90" width="60" height="30" as="geometry"/>
                </mxCell>
                <mxCell id="D1kGKPAv6p63z2uvyRfU-29" value="date de naissance" style="text;html=1;strokeColor=none;fillColor=none;align=center;verticalAlign=middle;whiteSpace=wrap;rounded=0;" parent="D1kGKPAv6p63z2uvyRfU-25" vertex="1">
                    <mxGeometry x="20" y="120" width="120" height="30" as="geometry"/>
                </mxCell>
                <mxCell id="D1kGKPAv6p63z2uvyRfU-60" value="" style="endArrow=none;html=1;exitX=0.25;exitY=0;exitDx=0;exitDy=0;" parent="D1kGKPAv6p63z2uvyRfU-25" source="D1kGKPAv6p63z2uvyRfU-27" edge="1">
                    <mxGeometry width="50" height="50" relative="1" as="geometry">
                        <mxPoint x="160" y="30" as="sourcePoint"/>
                        <mxPoint x="110" y="60" as="targetPoint"/>
                    </mxGeometry>
                </mxCell>
                <mxCell id="D1kGKPAv6p63z2uvyRfU-30" value="billets" style="swimlane;whiteSpace=wrap;html=1;" parent="1" vertex="1">
                    <mxGeometry x="-150" y="361" width="140" height="189" as="geometry"/>
                </mxCell>
                <mxCell id="D1kGKPAv6p63z2uvyRfU-31" value="id_billets" style="text;html=1;strokeColor=none;fillColor=none;align=center;verticalAlign=middle;whiteSpace=wrap;rounded=0;" parent="D1kGKPAv6p63z2uvyRfU-30" vertex="1">
                    <mxGeometry x="25" y="30" width="90" height="30" as="geometry"/>
                </mxCell>
                <mxCell id="D1kGKPAv6p63z2uvyRfU-32" value="prix" style="text;html=1;strokeColor=none;fillColor=none;align=center;verticalAlign=middle;whiteSpace=wrap;rounded=0;" parent="D1kGKPAv6p63z2uvyRfU-30" vertex="1">
                    <mxGeometry x="35" y="60" width="60" height="30" as="geometry"/>
                </mxCell>
                <mxCell id="D1kGKPAv6p63z2uvyRfU-33" value="qantity" style="text;html=1;strokeColor=none;fillColor=none;align=center;verticalAlign=middle;whiteSpace=wrap;rounded=0;" parent="D1kGKPAv6p63z2uvyRfU-30" vertex="1">
                    <mxGeometry x="40" y="90" width="50" height="30" as="geometry"/>
                </mxCell>
                <mxCell id="D1kGKPAv6p63z2uvyRfU-51" value="#id_evennement" style="text;html=1;strokeColor=none;fillColor=none;align=center;verticalAlign=middle;whiteSpace=wrap;rounded=0;" parent="D1kGKPAv6p63z2uvyRfU-30" vertex="1">
                    <mxGeometry x="25" y="149" width="90" height="30" as="geometry"/>
                </mxCell>
                <mxCell id="D1kGKPAv6p63z2uvyRfU-54" value="" style="endArrow=none;html=1;exitX=0.25;exitY=1;exitDx=0;exitDy=0;entryX=0.75;entryY=1;entryDx=0;entryDy=0;" parent="D1kGKPAv6p63z2uvyRfU-30" source="D1kGKPAv6p63z2uvyRfU-31" target="D1kGKPAv6p63z2uvyRfU-31" edge="1">
                    <mxGeometry width="50" height="50" relative="1" as="geometry">
                        <mxPoint x="270" y="-101" as="sourcePoint"/>
                        <mxPoint x="320" y="-151" as="targetPoint"/>
                        <Array as="points">
                            <mxPoint x="60" y="59"/>
                        </Array>
                    </mxGeometry>
                </mxCell>
                <mxCell id="D1kGKPAv6p63z2uvyRfU-57" value="#id_paricipantrs&amp;nbsp;" style="text;html=1;strokeColor=none;fillColor=none;align=center;verticalAlign=middle;whiteSpace=wrap;rounded=0;" parent="D1kGKPAv6p63z2uvyRfU-30" vertex="1">
                    <mxGeometry x="25" y="120" width="90" height="30" as="geometry"/>
                </mxCell>
                <mxCell id="D1kGKPAv6p63z2uvyRfU-34" value="" style="endArrow=none;html=1;exitX=0.5;exitY=0;exitDx=0;exitDy=0;entryX=0.5;entryY=1;entryDx=0;entryDy=0;" parent="1" source="D1kGKPAv6p63z2uvyRfU-30" target="D1kGKPAv6p63z2uvyRfU-25" edge="1">
                    <mxGeometry width="50" height="50" relative="1" as="geometry">
                        <mxPoint x="210" y="210" as="sourcePoint"/>
                        <mxPoint x="260" y="160" as="targetPoint"/>
                    </mxGeometry>
                </mxCell>
                <mxCell id="D1kGKPAv6p63z2uvyRfU-35" value="participation" style="ellipse;whiteSpace=wrap;html=1;" parent="1" vertex="1">
                    <mxGeometry x="-140" y="190" width="120" height="80" as="geometry"/>
                </mxCell>
                <mxCell id="D1kGKPAv6p63z2uvyRfU-36" value="1,n" style="text;html=1;strokeColor=none;fillColor=none;align=center;verticalAlign=middle;whiteSpace=wrap;rounded=0;" parent="1" vertex="1">
                    <mxGeometry x="-100" y="110" width="60" height="30" as="geometry"/>
                </mxCell>
                <mxCell id="D1kGKPAv6p63z2uvyRfU-37" value="1,1" style="text;html=1;strokeColor=none;fillColor=none;align=center;verticalAlign=middle;whiteSpace=wrap;rounded=0;" parent="1" vertex="1">
                    <mxGeometry x="-90" y="331" width="60" height="30" as="geometry"/>
                </mxCell>
                <mxCell id="D1kGKPAv6p63z2uvyRfU-38" value="" style="endArrow=none;html=1;" parent="1" edge="1">
                    <mxGeometry width="50" height="50" relative="1" as="geometry">
                        <mxPoint x="-10" y="450" as="sourcePoint"/>
                        <mxPoint x="300" y="320" as="targetPoint"/>
                    </mxGeometry>
                </mxCell>
                <mxCell id="D1kGKPAv6p63z2uvyRfU-39" value="autorisation" style="ellipse;whiteSpace=wrap;html=1;" parent="1" vertex="1">
                    <mxGeometry x="80" y="340" width="120" height="80" as="geometry"/>
                </mxCell>
                <mxCell id="D1kGKPAv6p63z2uvyRfU-40" value="1,1" style="text;html=1;strokeColor=none;fillColor=none;align=center;verticalAlign=middle;whiteSpace=wrap;rounded=0;" parent="1" vertex="1">
                    <mxGeometry x="-20" y="410" width="60" height="30" as="geometry"/>
                </mxCell>
                <mxCell id="D1kGKPAv6p63z2uvyRfU-41" value="1,n" style="text;html=1;strokeColor=none;fillColor=none;align=center;verticalAlign=middle;whiteSpace=wrap;rounded=0;" parent="1" vertex="1">
                    <mxGeometry x="250" y="295" width="60" height="30" as="geometry"/>
                </mxCell>
                <mxCell id="D1kGKPAv6p63z2uvyRfU-42" value="&lt;span style=&quot;color: rgb(0, 0, 0); font-family: &amp;quot;Nunito Sans&amp;quot;, sans-serif; font-size: 14px; font-weight: 400; text-align: start; background-color: rgb(255, 255, 255);&quot;&gt;sponsors&lt;/span&gt;" style="swimlane;whiteSpace=wrap;html=1;" parent="1" vertex="1">
                    <mxGeometry x="630" y="550" width="155" height="150" as="geometry"/>
                </mxCell>
                <mxCell id="D1kGKPAv6p63z2uvyRfU-43" value="id_sponsors" style="text;html=1;strokeColor=none;fillColor=none;align=center;verticalAlign=middle;whiteSpace=wrap;rounded=0;" parent="D1kGKPAv6p63z2uvyRfU-42" vertex="1">
                    <mxGeometry x="20" y="30" width="90" height="30" as="geometry"/>
                </mxCell>
                <mxCell id="D1kGKPAv6p63z2uvyRfU-44" value="nom" style="text;html=1;strokeColor=none;fillColor=none;align=center;verticalAlign=middle;whiteSpace=wrap;rounded=0;" parent="D1kGKPAv6p63z2uvyRfU-42" vertex="1">
                    <mxGeometry x="10" y="60" width="60" height="30" as="geometry"/>
                </mxCell>
                <mxCell id="D1kGKPAv6p63z2uvyRfU-45" value="adress" style="text;html=1;strokeColor=none;fillColor=none;align=center;verticalAlign=middle;whiteSpace=wrap;rounded=0;" parent="D1kGKPAv6p63z2uvyRfU-42" vertex="1">
                    <mxGeometry x="10" y="95" width="60" height="30" as="geometry"/>
                </mxCell>
                <mxCell id="D1kGKPAv6p63z2uvyRfU-84" value="" style="endArrow=none;html=1;exitX=0;exitY=0.75;exitDx=0;exitDy=0;entryX=1;entryY=0.75;entryDx=0;entryDy=0;" parent="D1kGKPAv6p63z2uvyRfU-42" source="D1kGKPAv6p63z2uvyRfU-43" target="D1kGKPAv6p63z2uvyRfU-43" edge="1">
                    <mxGeometry width="50" height="50" relative="1" as="geometry">
                        <mxPoint x="-40" y="-140" as="sourcePoint"/>
                        <mxPoint x="10" y="-190" as="targetPoint"/>
                    </mxGeometry>
                </mxCell>
                <mxCell id="D1kGKPAv6p63z2uvyRfU-46" value="" style="endArrow=none;html=1;exitX=0;exitY=0.5;exitDx=0;exitDy=0;entryX=0.5;entryY=1;entryDx=0;entryDy=0;" parent="1" source="D1kGKPAv6p63z2uvyRfU-42" target="D1kGKPAv6p63z2uvyRfU-1" edge="1">
                    <mxGeometry width="50" height="50" relative="1" as="geometry">
                        <mxPoint x="450" y="470" as="sourcePoint"/>
                        <mxPoint x="500" y="420" as="targetPoint"/>
                    </mxGeometry>
                </mxCell>
                <mxCell id="D1kGKPAv6p63z2uvyRfU-48" value="1,n" style="text;html=1;strokeColor=none;fillColor=none;align=center;verticalAlign=middle;whiteSpace=wrap;rounded=0;" parent="1" vertex="1">
                    <mxGeometry x="340" y="420" width="60" height="30" as="geometry"/>
                </mxCell>
                <mxCell id="D1kGKPAv6p63z2uvyRfU-49" value="1,n" style="text;html=1;strokeColor=none;fillColor=none;align=center;verticalAlign=middle;whiteSpace=wrap;rounded=0;" parent="1" vertex="1">
                    <mxGeometry x="580" y="610" width="60" height="30" as="geometry"/>
                </mxCell>
                <mxCell id="D1kGKPAv6p63z2uvyRfU-67" value="" style="endArrow=none;html=1;exitX=0.016;exitY=0.372;exitDx=0;exitDy=0;exitPerimeter=0;" parent="1" source="D1kGKPAv6p63z2uvyRfU-13" edge="1">
                    <mxGeometry width="50" height="50" relative="1" as="geometry">
                        <mxPoint x="600" y="230" as="sourcePoint"/>
                        <mxPoint x="650" y="210" as="targetPoint"/>
                        <Array as="points"/>
                    </mxGeometry>
                </mxCell>
                <mxCell id="D1kGKPAv6p63z2uvyRfU-68" value="organisation" style="text;html=1;strokeColor=none;fillColor=none;align=center;verticalAlign=middle;whiteSpace=wrap;rounded=0;" parent="1" vertex="1">
                    <mxGeometry x="545" y="180" width="60" height="30" as="geometry"/>
                </mxCell>
                <mxCell id="D1kGKPAv6p63z2uvyRfU-69" value="id_organisation&lt;br&gt;" style="text;html=1;strokeColor=none;fillColor=none;align=center;verticalAlign=middle;whiteSpace=wrap;rounded=0;" parent="1" vertex="1">
                    <mxGeometry x="520" y="215" width="110" height="20" as="geometry"/>
                </mxCell>
                <mxCell id="D1kGKPAv6p63z2uvyRfU-72" value="" style="endArrow=none;html=1;exitX=0.116;exitY=1.128;exitDx=0;exitDy=0;exitPerimeter=0;entryX=0.894;entryY=1.128;entryDx=0;entryDy=0;entryPerimeter=0;" parent="1" source="D1kGKPAv6p63z2uvyRfU-69" target="D1kGKPAv6p63z2uvyRfU-69" edge="1">
                    <mxGeometry width="50" height="50" relative="1" as="geometry">
                        <mxPoint x="690" y="340" as="sourcePoint"/>
                        <mxPoint x="770" y="320" as="targetPoint"/>
                    </mxGeometry>
                </mxCell>
                <mxCell id="D1kGKPAv6p63z2uvyRfU-75" value="#id_evennement&lt;br&gt;#id_organisateurs" style="text;html=1;strokeColor=none;fillColor=none;align=center;verticalAlign=middle;whiteSpace=wrap;rounded=0;" parent="1" vertex="1">
                    <mxGeometry x="510" y="240" width="130" height="30" as="geometry"/>
                </mxCell>
                <mxCell id="D1kGKPAv6p63z2uvyRfU-77" value="" style="ellipse;whiteSpace=wrap;html=1;" parent="1" vertex="1">
                    <mxGeometry x="405" y="448" width="170" height="110" as="geometry"/>
                </mxCell>
                <mxCell id="D1kGKPAv6p63z2uvyRfU-78" value="" style="endArrow=none;html=1;exitX=0.016;exitY=0.372;exitDx=0;exitDy=0;exitPerimeter=0;" parent="1" source="D1kGKPAv6p63z2uvyRfU-77" edge="1">
                    <mxGeometry width="50" height="50" relative="1" as="geometry">
                        <mxPoint x="515" y="508" as="sourcePoint"/>
                        <mxPoint x="565" y="488" as="targetPoint"/>
                        <Array as="points"/>
                    </mxGeometry>
                </mxCell>
                <mxCell id="D1kGKPAv6p63z2uvyRfU-79" value="sponsorisation" style="text;html=1;strokeColor=none;fillColor=none;align=center;verticalAlign=middle;whiteSpace=wrap;rounded=0;" parent="1" vertex="1">
                    <mxGeometry x="460" y="458" width="60" height="30" as="geometry"/>
                </mxCell>
                <mxCell id="D1kGKPAv6p63z2uvyRfU-80" value="id_sponsorisation" style="text;html=1;strokeColor=none;fillColor=none;align=center;verticalAlign=middle;whiteSpace=wrap;rounded=0;" parent="1" vertex="1">
                    <mxGeometry x="435" y="493" width="110" height="20" as="geometry"/>
                </mxCell>
                <mxCell id="D1kGKPAv6p63z2uvyRfU-81" value="" style="endArrow=none;html=1;exitX=0.116;exitY=1.128;exitDx=0;exitDy=0;exitPerimeter=0;entryX=0.894;entryY=1.128;entryDx=0;entryDy=0;entryPerimeter=0;" parent="1" source="D1kGKPAv6p63z2uvyRfU-80" target="D1kGKPAv6p63z2uvyRfU-80" edge="1">
                    <mxGeometry width="50" height="50" relative="1" as="geometry">
                        <mxPoint x="605" y="618" as="sourcePoint"/>
                        <mxPoint x="685" y="598" as="targetPoint"/>
                    </mxGeometry>
                </mxCell>
                <mxCell id="D1kGKPAv6p63z2uvyRfU-82" value="#id_evennement&lt;br&gt;#id_sponsors" style="text;html=1;strokeColor=none;fillColor=none;align=center;verticalAlign=middle;whiteSpace=wrap;rounded=0;" parent="1" vertex="1">
                    <mxGeometry x="425" y="518" width="130" height="30" as="geometry"/>
                </mxCell>
                <mxCell id="D1kGKPAv6p63z2uvyRfU-85" value="" style="endArrow=none;html=1;entryX=1;entryY=1;entryDx=0;entryDy=0;" parent="1" target="D1kGKPAv6p63z2uvyRfU-7" edge="1">
                    <mxGeometry width="50" height="50" relative="1" as="geometry">
                        <mxPoint x="720" y="70" as="sourcePoint"/>
                        <mxPoint x="640" y="20" as="targetPoint"/>
                    </mxGeometry>
                </mxCell>
            </root>
        </mxGraphModel>
    </diagram>
</mxfile>
